<svg id="Group_18229" data-name="Group 18229" xmlns="http://www.w3.org/2000/svg" xmlns:xlink="http://www.w3.org/1999/xlink" width="84.515" height="829.252" viewBox="0 0 84.515 829.252">
  <defs>
    <clipPath id="clip-path">
      <rect id="Rectangle_5400" data-name="Rectangle 5400" width="84.515" height="829.251" fill="none"/>
    </clipPath>
  </defs>
  <path id="Path_30291" data-name="Path 30291" d="M42.214,921.121l41.808-83.25-15.2-.03L42.282,890.475,16.14,837.75.7,837.722Z" transform="translate(-0.076 -91.87)" fill="#212021"/>
  <path id="Path_30292" data-name="Path 30292" d="M69.5,714.167V758.36H48.036V717.432H34.58V758.36H15.571V714.669H2.115v58.208H82.959v-58.71Z" transform="translate(-0.232 -78.32)" fill="#212021"/>
  <path id="Path_30293" data-name="Path 30293" d="M15.571,488.069V462.464H2.115v65.673H15.571v-25.6H83.205V488.069Z" transform="translate(-0.232 -50.717)" fill="#212021"/>
  <rect id="Rectangle_5399" data-name="Rectangle 5399" width="80.961" height="14.593" transform="translate(1.864 352.289)" fill="#212021"/>
  <path id="Path_30294" data-name="Path 30294" d="M0,203.437H15.3L42.242,149.77l26.727,53.667H84.512L42.257,118.924Z" transform="translate(0 -13.042)" fill="#212021"/>
  <path id="Path_30295" data-name="Path 30295" d="M69.516,0V41.137H2.238V55.656H82.973V0Z" transform="translate(-0.245 0)" fill="#212021"/>
  <g id="Group_18212" data-name="Group 18212">
    <g id="Group_18211" data-name="Group 18211" clip-path="url(#clip-path)">
      <path id="Path_30296" data-name="Path 30296" d="M36.938,632.224H15.571V609.445c0-3.753.931-6.7,2.766-8.763,1.771-1.989,4.327-2.916,8.043-2.916a9.168,9.168,0,0,1,7.53,3.3,12.36,12.36,0,0,1,3.027,8.429ZM82.96,591.805v-9.9l-.666-6.365-35.809,19.5a29.229,29.229,0,0,0-6.937-7.267,23.6,23.6,0,0,0-14.57-4.521c-7.242,0-12.972,2.536-17.033,7.538-3.868,4.766-5.83,10.857-5.83,18.1v37.849H82.96V632.224H50.395l0-22.71.017-.584Z" transform="translate(-0.232 -63.117)" fill="#212021"/>
      <path id="Path_30297" data-name="Path 30297" d="M75.846,275.239h0c-5.07-5.266-11.879-8.7-20.237-10.22l-2.883-.523-.013,14.363,1.92.426a22.886,22.886,0,0,1,11.4,5.925,17.576,17.576,0,0,1,5.311,13.146c-.006,7.406-2.544,13.008-7.756,17.125-5.4,4.269-12.358,6.429-20.686,6.422-8.472-.007-15.456-2.2-20.76-6.528-5.147-4.194-7.645-9.778-7.639-17.07a19.29,19.29,0,0,1,3.877-11.964A18.862,18.862,0,0,1,29.372,279.6l2.818-.678.012-14.038-4.208.6A29.083,29.083,0,0,0,8.287,276.741a34.618,34.618,0,0,0-7.089,21.5c-.009,11.4,3.99,20.7,11.889,27.63,7.758,6.81,17.784,10.269,29.8,10.279,11.907.011,21.908-3.391,29.721-10.106,7.976-6.859,12.027-16.188,12.037-27.728.008-9.237-2.952-17-8.8-23.079" transform="translate(-0.131 -29.006)" fill="#212021"/>
    </g>
  </g>
</svg>
